HIERARCHY
ROOT newVegas:Hips
{
	OFFSET 0.000000 96.479958 0.000000
	CHANNELS 6 Xposition Yposition Zposition Xrotation Yrotation Zrotation
	JOINT newVegas:Pelvis
	{
		OFFSET 0.000000 0.000000 0.000000
		CHANNELS 3 Xrotation Yrotation Zrotation
		JOINT newVegas:LeftUpLeg
		{
			OFFSET 18.735201 -5.666702 -4.541200
			CHANNELS 3 Xrotation Yrotation Zrotation
			JOINT newVegas:LeftLeg
			{
				OFFSET -0.021200 -31.938179 0.493100
				CHANNELS 3 Xrotation Yrotation Zrotation
				JOINT newVegas:LeftFoot
				{
					OFFSET 0.021200 -31.938179 -4.336299
					CHANNELS 3 Xrotation Yrotation Zrotation
					JOINT newVegas:LeftToeBase
					{
						OFFSET 0.943001 -26.722000 15.023500
						CHANNELS 3 Xrotation Yrotation Zrotation
						End Site
						{
							OFFSET 0.000000 30.670183 0.000000
						}
					}
				}
				JOINT newVegas:Left_PantLeg
				{
					OFFSET 0.663870 -9.044666 -1.108900
					CHANNELS 3 Xrotation Yrotation Zrotation
					End Site
					{
						OFFSET 1.415995 20.635357 0.000000
					}
				}
			}
		}
		JOINT newVegas:RightUpLeg
		{
			OFFSET -18.735201 -5.666702 -4.541200
			CHANNELS 3 Xrotation Yrotation Zrotation
			JOINT newVegas:RightLeg
			{
				OFFSET 0.018946 -31.938133 0.493100
				CHANNELS 3 Xrotation Yrotation Zrotation
				JOINT newVegas:RightFoot
				{
					OFFSET -0.018946 -31.938126 -4.336299
					CHANNELS 3 Xrotation Yrotation Zrotation
					JOINT newVegas:RightToeBase
					{
						OFFSET -0.943001 -26.722004 15.023500
						CHANNELS 3 Xrotation Yrotation Zrotation
						End Site
						{
							OFFSET 0.000000 30.670187 0.000000
						}
					}
				}
				JOINT newVegas:Right_PantLeg
				{
					OFFSET -0.661674 -9.044716 -1.108900
					CHANNELS 3 Xrotation Yrotation Zrotation
					End Site
					{
						OFFSET -1.415958 20.635269 0.000000
					}
				}
			}
		}
	}
	JOINT newVegas:Spine
	{
		OFFSET 0.000000 10.199997 -0.299500
		CHANNELS 3 Xrotation Yrotation Zrotation
		JOINT newVegas:Spine1
		{
			OFFSET 0.000000 11.900002 -1.516600
			CHANNELS 3 Xrotation Yrotation Zrotation
			JOINT newVegas:Spine2
			{
				OFFSET 0.000000 13.600006 -2.842500
				CHANNELS 3 Xrotation Yrotation Zrotation
				JOINT newVegas:Neck
				{
					OFFSET 0.000000 9.624100 -2.890100
					CHANNELS 3 Xrotation Yrotation Zrotation
					JOINT newVegas:Head
					{
						OFFSET 0.000000 14.068802 -1.351900
						CHANNELS 3 Xrotation Yrotation Zrotation
						JOINT newVegas:Hair_Back
						{
							OFFSET 0.000000 3.231903 -17.524799
							CHANNELS 3 Xrotation Yrotation Zrotation
							End Site
							{
								OFFSET 0.000000 19.849884 0.000000
							}
						}
						JOINT newVegas:Hair_Front
						{
							OFFSET 0.000000 31.260406 4.573800
							CHANNELS 3 Xrotation Yrotation Zrotation
							JOINT newVegas:Hair_Front1
							{
								OFFSET 0.000000 2.284103 11.993300
								CHANNELS 3 Xrotation Yrotation Zrotation
								JOINT newVegas:Hair_Front2
								{
									OFFSET 0.000000 2.284103 11.993300
									CHANNELS 3 Xrotation Yrotation Zrotation
									End Site
									{
										OFFSET 0.000000 12.208862 0.000000
									}
								}
							}
						}
						JOINT newVegas:Jowel
						{
							OFFSET 0.000000 -7.458206 6.864100
							CHANNELS 3 Xrotation Yrotation Zrotation
							End Site
							{
								OFFSET 0.000000 19.849884 0.000000
							}
						}
					}
				}
				JOINT newVegas:LeftShoulder
				{
					OFFSET 15.263000 10.923401 -0.547700
					CHANNELS 3 Xrotation Yrotation Zrotation
					JOINT newVegas:LeftArm
					{
						OFFSET 25.438599 -2.830597 -13.032500
						CHANNELS 3 Xrotation Yrotation Zrotation
						JOINT newVegas:LeftForeArm
						{
							OFFSET 29.960503 0.000000 0.000000
							CHANNELS 3 Xrotation Yrotation Zrotation
							JOINT newVegas:LeftHand
							{
								OFFSET 27.849251 0.000000 0.000000
								CHANNELS 3 Xrotation Yrotation Zrotation
								JOINT newVegas:LeftHandThumb1
								{
									OFFSET 4.487587 -3.305161 6.305391
									CHANNELS 3 Xrotation Yrotation Zrotation
									JOINT newVegas:LeftHandThumb2
									{
										OFFSET 5.480453 -3.164139 3.164143
										CHANNELS 3 Xrotation Yrotation Zrotation
										JOINT newVegas:LeftHandThumb3
										{
											OFFSET 5.159721 -2.978973 2.978967
											CHANNELS 3 Xrotation Yrotation Zrotation
											End Site
											{
												OFFSET 2.494507 5.926697 1.738678
											}
										}
									}
								}
								JOINT newVegas:LeftHandIndex1
								{
									OFFSET 18.578728 -0.527832 5.208049
									CHANNELS 3 Xrotation Yrotation Zrotation
									JOINT newVegas:LeftHandIndex2
									{
										OFFSET 3.192009 0.000000 0.000000
										CHANNELS 3 Xrotation Yrotation Zrotation
										JOINT newVegas:LeftHandIndex3
										{
											OFFSET 3.835129 0.000000 0.000000
											CHANNELS 3 Xrotation Yrotation Zrotation
											End Site
											{
												OFFSET -0.034599 3.816971 0.371180
											}
										}
									}
								}
								JOINT newVegas:LeftHandMiddle1
								{
									OFFSET 18.476105 0.000000 0.000000
									CHANNELS 3 Xrotation Yrotation Zrotation
									JOINT newVegas:LeftHandMiddle2
									{
										OFFSET 3.324875 0.000000 0.000000
										CHANNELS 3 Xrotation Yrotation Zrotation
										JOINT newVegas:LeftHandMiddle3
										{
											OFFSET 4.596550 0.000000 0.000000
											CHANNELS 3 Xrotation Yrotation Zrotation
											End Site
											{
												OFFSET 0.057701 4.578827 0.399218
											}
										}
									}
								}
								JOINT newVegas:LeftHandRing1
								{
									OFFSET 17.732719 0.121887 -4.201567
									CHANNELS 3 Xrotation Yrotation Zrotation
									JOINT newVegas:LeftHandRing2
									{
										OFFSET 2.733170 0.000000 0.000000
										CHANNELS 3 Xrotation Yrotation Zrotation
										JOINT newVegas:LeftHandRing3
										{
											OFFSET 3.178268 0.000000 0.000000
											CHANNELS 3 Xrotation Yrotation Zrotation
											End Site
											{
												OFFSET 0.119102 3.170624 0.185394
											}
										}
									}
								}
								JOINT newVegas:LeftHandPinky1
								{
									OFFSET 15.989624 -0.606689 -7.535461
									CHANNELS 3 Xrotation Yrotation Zrotation
									JOINT newVegas:LeftHandPinky2
									{
										OFFSET 2.538986 0.000000 0.000000
										CHANNELS 3 Xrotation Yrotation Zrotation
										JOINT newVegas:LeftHandPinky3
										{
											OFFSET 2.593102 0.000000 0.000000
											CHANNELS 3 Xrotation Yrotation Zrotation
											End Site
											{
												OFFSET -0.150902 2.584198 0.152708
											}
										}
									}
								}
							}
							JOINT newVegas:Left_Sleeve
							{
								OFFSET 0.267448 -0.649796 0.577675
								CHANNELS 3 Xrotation Yrotation Zrotation
								End Site
								{
									OFFSET 0.000000 15.991241 0.000000
								}
							}
							JOINT newVegas:Left_CapeC
							{
								OFFSET 15.715958 -8.608795 -6.935905
								CHANNELS 3 Xrotation Yrotation Zrotation
								JOINT newVegas:Left_CapeC1
								{
									OFFSET 0.000000 -8.688499 0.000000
									CHANNELS 3 Xrotation Yrotation Zrotation
									End Site
									{
										OFFSET 0.000000 8.688499 0.000000
									}
								}
							}
						}
						JOINT newVegas:Left_CapeB
						{
							OFFSET 26.118385 -8.608795 -7.079235
							CHANNELS 3 Xrotation Yrotation Zrotation
							JOINT newVegas:Left_CapeB1
							{
								OFFSET 0.000000 -8.688499 0.000000
								CHANNELS 3 Xrotation Yrotation Zrotation
								End Site
								{
									OFFSET 0.000000 8.688499 0.000000
								}
							}
						}
						JOINT newVegas:Left_CapeA
						{
							OFFSET 5.115639 -8.608795 -10.395809
							CHANNELS 3 Xrotation Yrotation Zrotation
							JOINT newVegas:Left_CapeA1
							{
								OFFSET 0.000000 -8.688499 0.000000
								CHANNELS 3 Xrotation Yrotation Zrotation
								End Site
								{
									OFFSET 0.000000 8.688499 0.000000
								}
							}
						}
					}
				}
				JOINT newVegas:RightShoulder
				{
					OFFSET -15.263000 10.923401 -0.547700
					CHANNELS 3 Xrotation Yrotation Zrotation
					JOINT newVegas:RightArm
					{
						OFFSET -25.438599 -2.830597 -13.032500
						CHANNELS 3 Xrotation Yrotation Zrotation
						JOINT newVegas:RightForeArm
						{
							OFFSET -29.960503 0.000000 0.000000
							CHANNELS 3 Xrotation Yrotation Zrotation
							JOINT newVegas:RightHand
							{
								OFFSET -27.849251 0.000000 0.000000
								CHANNELS 3 Xrotation Yrotation Zrotation
								JOINT newVegas:RightHandThumb1
								{
									OFFSET -4.487587 -3.305161 6.305391
									CHANNELS 3 Xrotation Yrotation Zrotation
									JOINT newVegas:RightHandThumb2
									{
										OFFSET -5.480453 -3.164139 3.164143
										CHANNELS 3 Xrotation Yrotation Zrotation
										JOINT newVegas:RightHandThumb3
										{
											OFFSET -5.159721 -2.978973 2.978967
											CHANNELS 3 Xrotation Yrotation Zrotation
											End Site
											{
												OFFSET -2.494507 5.926697 1.738678
											}
										}
									}
								}
								JOINT newVegas:RightHandIndex1
								{
									OFFSET -18.578728 -0.527832 5.208049
									CHANNELS 3 Xrotation Yrotation Zrotation
									JOINT newVegas:RightHandIndex2
									{
										OFFSET -3.192009 0.000000 0.000000
										CHANNELS 3 Xrotation Yrotation Zrotation
										JOINT newVegas:RightHandIndex3
										{
											OFFSET -3.835129 0.000000 0.000000
											CHANNELS 3 Xrotation Yrotation Zrotation
											End Site
											{
												OFFSET 0.034599 3.816971 0.371180
											}
										}
									}
								}
								JOINT newVegas:RightHandMiddle1
								{
									OFFSET -18.476105 0.000000 0.000000
									CHANNELS 3 Xrotation Yrotation Zrotation
									JOINT newVegas:RightHandMiddle2
									{
										OFFSET -3.324875 0.000000 0.000000
										CHANNELS 3 Xrotation Yrotation Zrotation
										JOINT newVegas:RightHandMiddle3
										{
											OFFSET -4.596550 0.000000 0.000000
											CHANNELS 3 Xrotation Yrotation Zrotation
											End Site
											{
												OFFSET -0.057701 4.578827 0.399218
											}
										}
									}
								}
								JOINT newVegas:RightHandRing1
								{
									OFFSET -17.732719 0.121887 -4.201567
									CHANNELS 3 Xrotation Yrotation Zrotation
									JOINT newVegas:RightHandRing2
									{
										OFFSET -2.733170 0.000000 0.000000
										CHANNELS 3 Xrotation Yrotation Zrotation
										JOINT newVegas:RightHandRing3
										{
											OFFSET -3.178268 0.000000 0.000000
											CHANNELS 3 Xrotation Yrotation Zrotation
											End Site
											{
												OFFSET -0.119102 3.170624 0.185394
											}
										}
									}
								}
								JOINT newVegas:RightHandPinky1
								{
									OFFSET -15.989624 -0.606689 -7.535461
									CHANNELS 3 Xrotation Yrotation Zrotation
									JOINT newVegas:RightHandPinky2
									{
										OFFSET -2.538986 0.000000 0.000000
										CHANNELS 3 Xrotation Yrotation Zrotation
										JOINT newVegas:RightHandPinky3
										{
											OFFSET -2.593102 0.000000 0.000000
											CHANNELS 3 Xrotation Yrotation Zrotation
											End Site
											{
												OFFSET 0.150902 2.584198 0.152708
											}
										}
									}
								}
							}
							JOINT newVegas:Right_CapeC
							{
								OFFSET -15.715958 -8.608795 -6.935905
								CHANNELS 3 Xrotation Yrotation Zrotation
								JOINT newVegas:Right_CapeC1
								{
									OFFSET 0.000000 -8.688499 0.000000
									CHANNELS 3 Xrotation Yrotation Zrotation
									End Site
									{
										OFFSET 0.000000 8.688499 0.000000
									}
								}
							}
							JOINT newVegas:Right_Sleeve
							{
								OFFSET -0.267448 -0.649994 0.577675
								CHANNELS 3 Xrotation Yrotation Zrotation
								End Site
								{
									OFFSET 0.000000 15.991302 0.000000
								}
							}
						}
						JOINT newVegas:Right_CapeA
						{
							OFFSET -5.115540 -8.608795 -10.395824
							CHANNELS 3 Xrotation Yrotation Zrotation
							JOINT newVegas:Right_CapeA1
							{
								OFFSET 0.000000 -8.688499 0.000000
								CHANNELS 3 Xrotation Yrotation Zrotation
								End Site
								{
									OFFSET 0.000000 8.688499 0.000000
								}
							}
						}
						JOINT newVegas:Right_CapeB
						{
							OFFSET -26.118187 -8.608795 -7.079266
							CHANNELS 3 Xrotation Yrotation Zrotation
							JOINT newVegas:Right_CapeB1
							{
								OFFSET 0.000000 -8.688499 0.000000
								CHANNELS 3 Xrotation Yrotation Zrotation
								End Site
								{
									OFFSET 0.000000 8.688499 0.000000
								}
							}
						}
					}
				}
				JOINT newVegas:Left_Collar
				{
					OFFSET 18.625099 8.655502 8.828100
					CHANNELS 3 Xrotation Yrotation Zrotation
					JOINT newVegas:Left_Collar1
					{
						OFFSET 14.783401 10.540405 -1.259500
						CHANNELS 3 Xrotation Yrotation Zrotation
						End Site
						{
							OFFSET 0.000000 18.199875 0.000000
						}
					}
				}
				JOINT newVegas:Collar_Back
				{
					OFFSET 0.000000 15.630707 -20.132601
					CHANNELS 3 Xrotation Yrotation Zrotation
					End Site
					{
						OFFSET 0.000000 22.523010 0.000000
					}
				}
				JOINT newVegas:Left_Peck
				{
					OFFSET 17.239599 -5.132599 25.482599
					CHANNELS 3 Xrotation Yrotation Zrotation
					End Site
					{
						OFFSET 0.000000 22.523010 0.000000
					}
				}
				JOINT newVegas:Right_Peck
				{
					OFFSET -17.239599 -5.132202 25.482599
					CHANNELS 3 Xrotation Yrotation Zrotation
					End Site
					{
						OFFSET 0.000000 22.523010 0.000000
					}
				}
				JOINT newVegas:Right_Collar
				{
					OFFSET -18.625099 8.655792 8.828100
					CHANNELS 3 Xrotation Yrotation Zrotation
					JOINT newVegas:Right_Collar1
					{
						OFFSET -14.783401 10.539993 -1.259500
						CHANNELS 3 Xrotation Yrotation Zrotation
						End Site
						{
							OFFSET 0.000000 18.199631 0.000000
						}
					}
				}
			}
		}
		JOINT newVegas:Belly
		{
			OFFSET 0.000000 -6.540398 9.014299
			CHANNELS 3 Xrotation Yrotation Zrotation
			End Site
			{
				OFFSET 0.000000 11.566666 0.000000
			}
		}
	}
	JOINT newVegas:ElvisFacialAnim_Joint
	{
		OFFSET 1.000000 -95.330101 -8.825800
		CHANNELS 3 Xrotation Yrotation Zrotation
		End Site
		{
			OFFSET 0.000000 35.315800 0.000000
		}
	}
}
MOTION
Frames: 4
Frame Time: 0.016667
-232.624725 94.000732 -7.217360 -0.249733 -1.879759 0.127385 0.000000 0.000000 0.000000 -16.766035 14.091618 13.021300 19.535080 -10.109711 -0.030650 -6.439293 -10.996892 -8.172560 -0.000000 -0.000000 -0.000000 -0.000000 -0.000000 0.000001 -7.229713 -8.304832 -10.538424 20.261048 0.448064 3.984451 -13.042784 -2.761028 5.233633 0.000000 0.000001 0.000000 0.000000 0.000000 -0.000000 1.358597 0.239809 0.528599 1.526172 0.604860 0.276834 1.528457 0.599782 0.275481 0.959658 -0.321840 -0.128747 0.959573 -0.321840 -0.128746 0.000000 -0.000000 -0.000000 0.959513 -0.321837 -0.128747 0.959495 -0.321847 -0.128745 -0.000000 -0.000000 -0.000000 0.000000 -0.000000 -0.000000 0.680081 -3.439144 -11.860527 7.201843 -16.916695 -65.380251 0.000004 -20.680380 -0.000002 -11.810938 -9.230394 8.456927 -4.796948 3.051771 4.543932 15.168955 25.440076 5.455594 0.000000 -0.000004 -0.000003 -1.456306 0.275395 -37.796713 1.499748 3.915409 -41.904566 0.000001 -0.000001 -0.000002 -0.989833 3.521579 -42.884166 1.912717 4.330581 -47.643735 -0.000002 0.000001 0.000000 -1.278579 4.236132 -52.701296 2.281793 4.639290 -52.360705 -0.000002 -0.000001 -0.000001 0.169527 5.868157 -58.032395 2.290171 4.645721 -52.464421 -0.000003 -0.000002 0.000001 -0.000001 0.000000 -0.000000 -0.000001 0.000000 -0.000000 -0.000002 0.000000 0.000000 -0.000000 0.000000 0.000001 0.000000 0.000000 -0.000000 -0.000000 0.000000 0.000001 0.000000 -0.000000 0.000000 0.475742 8.188373 13.746941 13.305186 7.816371 61.653338 0.000008 31.239045 -0.000013 -9.883381 4.315941 -8.466872 -3.629446 2.305970 -13.175383 14.001423 -30.265408 1.170800 -0.000000 -0.000002 -0.000002 -0.431355 6.502034 20.288749 1.739991 -3.631899 51.185281 -0.000003 0.000001 0.000002 -1.795543 -0.980951 34.164756 1.353508 -3.284341 44.784587 -0.000000 0.000000 -0.000002 -1.346445 -2.158738 38.580450 1.794979 -3.675362 52.048152 0.000001 0.000002 0.000001 -0.503785 -3.831136 44.436750 1.111610 -3.021554 40.388896 -0.000001 -0.000000 0.000001 -0.000001 0.000001 -0.000000 -0.000001 0.000003 -0.000002 -0.000001 0.000001 -0.000000 0.000000 0.000001 -0.000000 0.000001 0.000002 -0.000000 0.000000 0.000001 -0.000000 0.000001 0.000002 -0.000000 0.000001 0.000000 -0.000000 0.000001 0.000000 -0.000000 0.000001 0.000000 -0.000000 0.000001 0.000000 -0.000000 0.000001 0.000000 -0.000000 0.000001 0.000000 -0.000000 0.000001 0.000000 -0.000000 -0.000000 -0.000000 0.000000 0.000000 0.000000 0.000000 
-232.608902 93.983643 -7.203722 -0.220995 -1.876226 0.136364 -0.000000 -0.000000 0.000000 -16.829629 14.089810 13.004681 19.633647 -10.115333 -0.050012 -6.492760 -10.993188 -8.085909 -0.000000 0.000000 0.000000 -0.000001 0.000000 0.000000 -7.313540 -8.342085 -10.594314 20.327446 0.515379 4.008047 -13.017472 -2.761542 5.231635 -0.000000 -0.000001 -0.000000 0.000000 0.000001 -0.000001 1.367633 0.243535 0.524860 1.531444 0.606262 0.276090 1.533718 0.600987 0.273807 0.933782 -0.321561 -0.141689 0.933784 -0.321561 -0.141689 0.000000 0.000000 0.000000 0.933856 -0.321563 -0.141688 0.933785 -0.321562 -0.141689 -0.000001 -0.000000 0.000000 0.000000 0.000000 0.000000 0.675228 -3.107452 -11.968065 6.895876 -17.408923 -64.965597 -0.000001 -21.235270 0.000015 -11.562174 -8.704127 7.746383 -5.002436 2.937001 4.426665 15.317502 25.259607 5.072972 0.000001 -0.000002 -0.000005 -1.570710 0.351092 -38.821149 1.555520 3.976535 -42.715020 -0.000005 -0.000003 -0.000001 -1.061513 3.536009 -43.793650 1.991618 4.401010 -48.680152 -0.000002 0.000000 -0.000000 -1.391747 4.262018 -53.784413 2.370278 4.705981 -53.446865 -0.000001 -0.000004 0.000001 0.125766 5.897912 -59.090890 2.390670 4.720978 -53.695163 0.000001 0.000000 -0.000000 0.000001 -0.000001 -0.000000 0.000001 -0.000001 -0.000000 -0.000000 -0.000001 -0.000000 -0.000004 0.000001 0.000001 -0.000003 0.000001 0.000001 -0.000004 0.000001 0.000001 -0.000003 -0.000000 0.000001 0.473370 8.054809 13.883103 13.604481 8.269888 60.830894 0.000003 32.298974 -0.000001 -9.651778 5.375916 -9.192790 -3.762568 2.514886 -13.410403 14.089891 -30.154616 1.745247 0.000002 -0.000003 0.000001 -0.560420 6.702907 20.635246 1.816298 -3.691862 52.380007 -0.000002 -0.000001 0.000001 -1.907309 -0.903894 34.752102 1.406555 -3.336865 45.703306 -0.000002 0.000001 -0.000000 -1.442356 -2.098808 39.124628 1.864083 -3.728112 53.118480 0.000002 0.000001 -0.000001 -0.565019 -3.792889 44.974631 1.150883 -3.067079 41.128486 0.000001 0.000003 0.000001 -0.000000 -0.000000 0.000000 -0.000002 -0.000000 0.000000 -0.000000 -0.000000 0.000000 0.000000 0.000001 -0.000000 0.000001 0.000001 0.000000 0.000000 0.000001 -0.000000 0.000001 0.000001 0.000000 -0.000000 0.000000 -0.000000 -0.000000 0.000000 -0.000000 -0.000000 0.000000 -0.000000 -0.000000 0.000000 -0.000000 -0.000000 0.000000 -0.000000 -0.000000 0.000000 -0.000000 -0.000000 0.000000 -0.000000 0.000000 -0.000000 -0.000000 -0.000000 -0.000000 0.000000 
-232.588120 93.965958 -7.196502 -0.173687 -1.887561 0.147176 0.000000 0.000000 0.000000 -16.919207 14.083192 13.004020 19.730289 -10.131664 -0.077297 -6.529197 -10.963390 -8.043176 0.000000 0.000000 0.000000 -0.000000 -0.000001 -0.000001 -7.427747 -8.355780 -10.645198 20.406327 0.573659 4.014648 -13.003466 -2.765118 5.242347 -0.000000 0.000001 0.000000 -0.000000 -0.000001 -0.000000 1.375218 0.256318 0.523169 1.534144 0.618928 0.275135 1.536387 0.613600 0.273539 0.898846 -0.319901 -0.157086 0.898849 -0.319901 -0.157086 -0.000000 0.000000 -0.000000 0.898844 -0.319900 -0.157086 0.898918 -0.319903 -0.157085 -0.000000 0.000000 -0.000000 -0.000000 0.000000 0.000000 0.674981 -2.709238 -11.957097 6.658603 -17.652580 -64.530056 -0.000001 -22.655391 0.000004 -12.066286 -8.706396 7.052869 -5.209590 2.820756 4.307806 15.466326 25.076368 4.687932 -0.000001 -0.000000 -0.000003 -1.685194 0.430443 -39.850947 1.612456 4.037184 -43.529810 -0.000002 -0.000001 0.000001 -1.134790 3.553185 -44.707813 2.072242 4.470379 -49.722486 0.000001 0.000001 0.000001 -1.507005 4.293113 -54.873108 2.460537 4.771342 -54.539347 -0.000001 -0.000001 -0.000000 0.080652 5.930771 -60.154938 2.493362 4.794479 -54.933248 -0.000001 0.000000 -0.000001 0.000000 0.000002 -0.000000 0.000000 0.000002 -0.000000 -0.000001 0.000002 0.000000 0.000001 -0.000001 0.000002 0.000001 -0.000001 0.000002 0.000001 -0.000001 0.000002 0.000001 -0.000000 0.000002 0.480198 7.824791 13.908634 13.803062 8.765855 60.021250 -0.000004 33.727430 0.000018 -10.033463 6.711241 -10.260484 -3.896472 2.725651 -13.646549 14.178151 -30.041815 2.323868 0.000002 0.000001 0.000001 -0.692424 6.904158 20.983521 1.894297 -3.750534 53.581550 -0.000000 -0.000003 0.000000 -2.021842 -0.828647 35.342206 1.460744 -3.388809 46.627079 -0.000001 0.000001 0.000001 -1.540404 -2.040393 39.671275 1.934564 -3.779865 54.194918 0.000003 -0.000001 -0.000000 -0.628020 -3.755696 45.514857 1.190964 -3.112295 41.871986 0.000001 0.000002 0.000000 0.000001 0.000002 -0.000001 0.000002 0.000002 -0.000000 0.000001 0.000002 -0.000001 -0.000001 0.000000 0.000000 -0.000000 0.000000 0.000000 -0.000001 0.000000 0.000000 -0.000000 -0.000000 0.000000 -0.000000 0.000000 0.000000 -0.000000 0.000000 0.000000 -0.000000 0.000000 0.000000 -0.000000 0.000000 0.000000 -0.000000 0.000000 0.000000 -0.000000 0.000000 0.000000 -0.000000 0.000000 0.000000 -0.000000 0.000000 0.000000 0.000000 0.000000 0.000000 
-232.561081 93.955032 -7.199689 -0.124185 -1.911273 0.160778 0.000000 -0.000000 0.000000 -16.988058 14.080236 12.989334 19.803502 -10.142739 -0.102558 -6.586897 -10.919650 -8.002531 0.000000 0.000000 0.000000 -0.000000 -0.000000 0.000000 -7.536076 -8.355349 -10.689796 20.471981 0.622041 4.003671 -13.016705 -2.773331 5.264928 -0.000000 -0.000001 0.000000 -0.000002 0.000001 -0.000001 1.383435 0.276060 0.521230 1.538205 0.645311 0.273751 1.540385 0.640241 0.273648 0.863351 -0.316754 -0.170712 0.863393 -0.316754 -0.170713 0.000000 -0.000000 -0.000000 0.863271 -0.316755 -0.170713 0.863420 -0.316757 -0.170712 -0.000000 0.000000 0.000000 0.000000 -0.000000 -0.000000 0.681320 -2.265466 -11.771151 6.596426 -17.554466 -64.079947 -0.000007 -25.201801 -0.000006 -13.999453 -9.246307 6.718630 -5.417902 2.703398 4.187582 15.615086 24.890876 4.301398 -0.000001 -0.000000 -0.000003 -1.799444 0.513327 -40.883771 1.670407 4.097188 -44.347076 -0.000001 -0.000002 -0.000000 -1.209442 3.573127 -45.624561 2.154382 4.538504 -50.768400 0.000001 0.000000 -0.000000 -1.623982 4.329471 -55.964941 2.552325 4.835176 -55.635576 -0.000002 -0.000001 0.000001 0.034388 5.966741 -61.222237 2.597986 4.865980 -56.175803 -0.000003 -0.000003 0.000001 0.000000 0.000000 0.000001 0.000000 0.000000 0.000001 -0.000000 0.000001 0.000001 -0.000000 0.000000 0.000000 -0.000000 0.000000 0.000000 -0.000000 0.000000 0.000000 -0.000000 -0.000000 0.000000 0.498076 7.530342 13.753907 13.999235 9.313925 59.251980 0.000002 35.758701 -0.000033 -11.394871 7.937364 -11.635044 -4.030885 2.937704 -13.883291 14.266038 -29.927416 2.905278 0.000003 -0.000002 -0.000001 -0.827120 7.105283 21.332750 1.973745 -3.807769 54.787143 -0.000001 -0.000001 -0.000001 -2.138918 -0.755409 35.933741 1.515949 -3.440022 47.553809 0.000000 0.000001 0.000000 -1.640367 -1.983673 40.219060 2.006250 -3.830424 55.274993 -0.000001 0.000002 0.000000 -0.692660 -3.719704 46.056235 1.231741 -3.157125 42.617631 -0.000001 0.000002 0.000000 0.000001 0.000004 -0.000001 -0.000001 0.000003 -0.000000 0.000001 0.000003 -0.000001 -0.000002 -0.000001 -0.000000 -0.000001 0.000000 0.000001 -0.000002 -0.000001 -0.000000 -0.000001 -0.000000 0.000001 -0.000000 0.000000 -0.000000 -0.000000 0.000000 -0.000000 -0.000000 0.000000 -0.000000 -0.000000 0.000000 -0.000000 -0.000000 0.000000 -0.000000 -0.000000 0.000000 -0.000000 -0.000000 0.000000 -0.000000 0.000000 0.000000 -0.000000 0.000000 -0.000000 0.000000 
